<?xml version="1.0" encoding="UTF-8"?>
<svg version="1.1" xmlns="http://www.w3.org/2000/svg" width="407" height="613">
<path d="M0 0 C134.31 0 268.62 0 407 0 C407 202.29 407 404.58 407 613 C272.69 613 138.38 613 0 613 C0 410.71 0 208.42 0 0 Z M259.375 193.375 C258.21226562 193.59671875 257.04953125 193.8184375 255.8515625 194.046875 C250.95011925 194.98946024 246.07275335 195.97003847 241.21875 197.1328125 C236.85582013 198.12134346 232.58639917 198.36670688 228.125 198.5 C223.37091254 198.64355149 218.90346812 198.98490699 214.25244141 200.01806641 C207.36461146 201.29550281 200.56130779 201.19627117 193.59095001 201.08919907 C191.20837421 201.05383781 188.82607707 201.0336392 186.44329834 201.0173645 C179.6764497 200.96897377 172.90997835 200.89787076 166.14355469 200.80810547 C161.98116256 200.75393757 157.81898414 200.72025119 153.65630341 200.69836807 C152.08886561 200.68612024 150.5214646 200.66633379 148.95423126 200.6382103 C135.49468437 200.39882834 122.97986691 202.27761687 110.8125 208.5 C109.82769653 209.00104248 109.82769653 209.00104248 108.82299805 209.51220703 C98.72422895 214.98405982 89.49648918 223.86568814 86 235 C83.17484406 245.86995973 81.06634123 256.89052448 80.81152344 268.13500977 C80.47985814 280.21052223 78.15009768 291.74655457 75.70263672 303.54492188 C74.97707938 307.11270765 74.29650577 310.68656312 73.62890625 314.265625 C73.4081543 315.44568115 73.18740234 316.6257373 72.95996094 317.84155273 C72.53751609 320.10622028 72.11748138 322.37133912 71.70019531 324.63696289 C71.40967285 326.17211548 71.40967285 326.17211548 71.11328125 327.73828125 C70.94610596 328.63587158 70.77893066 329.53346191 70.60668945 330.45825195 C69.96415538 333.15017235 69.24015256 335.52213239 68 338 C67.01 338.33 66.02 338.66 65 339 C62.546875 337.70703125 62.546875 337.70703125 59.75 335.8125 C58.7703125 335.16925781 57.790625 334.52601563 56.78125 333.86328125 C55.17186909 332.78508645 53.56577229 331.70188598 51.96875 330.60546875 C49.00447593 328.69890156 46.90611444 327.99190642 43.375 327.6875 C39.13106536 329.33791903 37.82203455 330.84272979 35.88671875 334.90625 C32.45551418 346.87767739 35.23055696 358.86903929 38.90625 370.40234375 C40 374 40 374 40 377 C40.66 377 41.32 377 42 377 C42.11988281 377.70898438 42.23976563 378.41796875 42.36328125 379.1484375 C45.18946494 391.80557917 52.06800295 404.63385834 62 413 C65.12706959 414.5635348 68.57982443 414.39958487 72 414 C72.99 413.34 73.98 412.68 75 412 C78.1875 412.375 78.1875 412.375 81 413 C81.33 413.99 81.66 414.98 82 416 C82.66 416 83.32 416 84 416 C84.433125 417.1446875 84.433125 417.1446875 84.875 418.3125 C85.96269013 421.15029308 85.96269013 421.15029308 88 424 C88.99 424.33 89.98 424.66 91 425 C92.75390625 427.65234375 92.75390625 427.65234375 94.5625 430.9375 C96.89717076 435.25812569 96.89717076 435.25812569 100 439 C100.495 439.53625 100.99 440.0725 101.5 440.625 C102.90657595 442.22524154 102.90657595 442.22524154 105 442 C105.0825 442.7425 105.165 443.485 105.25 444.25 C106.14809799 447.54302595 107.38416074 448.85976788 110 451 C110.66 451 111.32 451 112 451 C112.34611328 451.85464844 112.34611328 451.85464844 112.69921875 452.7265625 C114.32921094 455.57537768 116.32027543 457.24521289 118.8125 459.375 C121.75960671 461.94470744 124.48708867 464.4009552 126.875 467.5 C129.15800465 470.18588783 129.72777741 470.38645826 133 471 C134.6825613 472.31321858 136.34997172 473.64613064 138 475 C138.99 475.33 139.98 475.66 141 476 C141.495 477.485 141.495 477.485 142 479 C143.78949628 480.23531167 143.78949628 480.23531167 145.9375 481.1875 C146.64777344 481.53167969 147.35804688 481.87585938 148.08984375 482.23046875 C149.96596296 483.12455962 149.96596296 483.12455962 152 483 C152 483.66 152 484.32 152 485 C152.85851562 485.41894531 153.71703125 485.83789062 154.6015625 486.26953125 C157.93575599 487.96728725 161.14661279 489.79724478 164.375 491.6875 C185.35778029 504.06606057 185.35778029 504.06606057 209 508 C209 508.66 209 509.32 209 510 C224.04053198 512.20452242 239.31881887 512.01485362 254 508 C255.60277441 507.68043601 257.20682709 507.36716614 258.8125 507.0625 C262.7991081 506.18648556 266.29854249 504.62128646 269.98046875 502.88671875 C272.28552209 501.87463537 274.50464876 501.3219808 277 501 C277 500.34 277 499.68 277 499 C277.721875 498.731875 278.44375 498.46375 279.1875 498.1875 C289.0623064 494.0181373 296.85102082 486.66060085 303.59765625 478.5234375 C305 477 305 477 307 476 C307 475.34 307 474.68 307 474 C307.66 474 308.32 474 309 474 C312.30290192 470.54798167 312.30290192 470.54798167 313 466 C313.66 466 314.32 466 315 466 C316.25381197 464.54092475 316.25381197 464.54092475 317.4375 462.6875 C318.6725901 460.84067249 319.80905635 459.18510926 321.40625 457.63671875 C323.63636556 455.34647753 325.28996445 452.78214675 327.0625 450.125 C327.75472656 449.09632813 328.44695312 448.06765625 329.16015625 447.0078125 C330.78178268 444.35674594 331.89192222 441.88581995 333 439 C333.7398158 437.79293212 334.51099248 436.60451584 335.3125 435.4375 C341.30595077 425.97880926 343.98266318 415.91815399 346 405 C346.16806152 404.22825439 346.33612305 403.45650879 346.50927734 402.66137695 C347.02655265 399.8559948 347.25636529 397.13596202 347.4296875 394.2890625 C347.50316406 393.20882812 347.57664062 392.12859375 347.65234375 391.015625 C347.80023764 388.76348639 347.94091768 386.51086193 348.07421875 384.2578125 C348.50742219 378.0901703 349.34433699 373.55337865 352 368 C354.90515509 354.33924265 354.67081565 339.89889475 355 326 C355.02336426 325.04931641 355.04672852 324.09863281 355.07080078 323.11914062 C355.12596309 320.55849678 355.16210927 317.99859558 355.1875 315.4375 C355.20055176 314.70748779 355.21360352 313.97747559 355.22705078 313.2253418 C355.23706791 307.05836577 354.86539418 300.46713423 351.0625 295.4375 C349.00880478 293.71410367 349.00880478 293.71410367 346 294 C345.34 296.97 344.68 299.94 344 303 C343.67 303 343.34 303 343 303 C342.96036133 302.2064209 342.92072266 301.4128418 342.87988281 300.59521484 C342.00251227 283.79671971 340.59223624 267.47075535 337 251 C336.6589624 249.38206543 336.6589624 249.38206543 336.31103516 247.73144531 C335.57909848 244.27521386 334.82545706 240.82450854 334.0625 237.375 C333.83401367 236.32022461 333.60552734 235.26544922 333.37011719 234.17871094 C330.69308848 222.5168816 326.39153733 207.48865644 316.375 200.05078125 C309.85107515 196.46782784 303.59799792 195.21512423 296.25 194.43359375 C293.34102171 194.04549689 291.03130364 193.42853641 288.3125 192.375 C278.98430162 188.9650979 268.79830107 191.50296028 259.375 193.375 Z " fill="#000000" transform="translate(0,0)"/>
<path d="M0 0 C2.0859375 2.01953125 2.0859375 2.01953125 2.6484375 4.51953125 C1.88013011 7.93423078 0.996382 9.05498121 -1.9140625 11.01953125 C-7.55753582 11.37187509 -11.89829055 10.65381046 -17.3515625 9.01953125 C-36.91826459 3.67831283 -53.60595461 8.49699554 -70.9140625 18.01953125 C-74.54371253 20.16554989 -74.54371253 20.16554989 -78.1171875 22.40234375 C-79.9140625 23.01953125 -79.9140625 23.01953125 -82.0859375 22.38671875 C-83.9140625 21.01953125 -83.9140625 21.01953125 -84.79296875 19.125 C-84.99566559 15.60069048 -83.31241762 13.90515966 -81.16796875 11.23828125 C-62.70293039 -6.93874092 -22.84102874 -15.5233265 0 0 Z " fill="#000000" transform="translate(188.9140625,271.98046875)"/>
<path d="M0 0 C10.59216525 2.89137971 21.09568588 5.46295589 32.02139282 6.76470947 C35.68427047 7.20483678 38.7476675 7.61515912 41.90982056 9.60089111 C42.27467236 14.10073003 42.27467236 14.10073003 40.73013306 16.21807861 C32.54462206 22.43625649 13.34438997 17.87138545 3.90982056 16.60089111 C-0.60753212 15.95602648 -5.0988915 15.21940162 -9.59017944 14.41339111 C-10.6462439 14.24178467 -11.70230835 14.07017822 -12.79037476 13.89337158 C-18.79007494 12.72972866 -22.28816357 11.39565495 -25.98666382 6.42388916 C-29.14630089 1.20419668 -29.14630089 1.20419668 -28.84017944 -2.08660889 C-28.59267944 -2.84973389 -28.34517944 -3.61285889 -28.09017944 -4.39910889 C-20.99697516 -7.94571103 -7.23436051 -1.98105796 0 0 Z " fill="#000000" transform="translate(289.0901794433594,283.39910888671875)"/>
<path d="M0 0 C8.38510452 0.60982578 15.12461026 2.59109645 21 8.875 C23.6530522 12.14689348 24.89212164 14.68486554 25 19 C24.01 19.33 23.02 19.66 22 20 C21.01719585 18.39805929 20.03888283 16.79336258 19.0625 15.1875 C18.51722656 14.29417969 17.97195313 13.40085937 17.41015625 12.48046875 C16 10 16 10 15 7 C11.97795603 5.12855075 8.58709613 4.06682005 5.25 2.875 C4.26515625 2.52179688 3.2803125 2.16859375 2.265625 1.8046875 C1.51796875 1.53914063 0.7703125 1.27359375 0 1 C0 0.67 0 0.34 0 0 Z " fill="#000000" transform="translate(307,309)"/>
<path d="M0 0 C5.65642703 6.12779594 6.44420708 11.55988942 6.32421875 19.69140625 C5.87479145 24.27773063 4.61091671 28.18404481 2 32 C1.01 32.66 0.02 33.32 -1 34 C-0.505 32.9171875 -0.505 32.9171875 0 31.8125 C1.00603529 28.98302573 1.16977402 26.97104534 1 24 C-3.31240357 26.2909644 -6.66843465 29.28461555 -10.23046875 32.57421875 C-12 34 -12 34 -14 34 C-13.67 34.99 -13.34 35.98 -13 37 C-22.98139535 39.75348837 -22.98139535 39.75348837 -27 39 C-32.62264007 35.17273448 -37.14413069 30.74563027 -38.6953125 23.95703125 C-38.83710938 22.91933594 -38.97890625 21.88164062 -39.125 20.8125 C-39.61838482 16.76785305 -39.61838482 16.76785305 -41 13 C-33.1274987 3.30698277 -25.93226463 -1.93870816 -13.75 -4.75 C-7.93791394 -5.27837146 -4.60296082 -3.52567212 0 0 Z M-29.75 5.125 C-31.5133966 7.77009491 -31.20694492 9.89582621 -31 13 C-28.73398135 14.29042763 -28.73398135 14.29042763 -26 15 C-23.55797882 14.14782671 -23.55797882 14.14782671 -22 12 C-21.49989476 8.95769177 -21.49989476 8.95769177 -22 6 C-22.66 5.34 -23.32 4.68 -24 4 C-27.78595012 3.63949494 -27.78595012 3.63949494 -29.75 5.125 Z " fill="#000000" transform="translate(307,314)"/>
<path d="M0 0 C4.88977206 3.99988859 8.1585907 7.82586293 10 14 C10.21096818 16.72340746 10.14416078 19.26094519 10 22 C9.00357789 20.02038262 8.01823022 18.03852858 7.0703125 16.03515625 C2.7211223 6.95936679 -3.06625451 1.29021756 -12.5625 -2.375 C-13.366875 -2.58125 -14.17125 -2.7875 -15 -3 C-14.52949219 -2.57589844 -14.05898437 -2.15179688 -13.57421875 -1.71484375 C-7.27099449 4.22297621 -4.8920738 8.72927015 -4.5 17.375 C-4.65518521 24.464514 -6.76683025 29.62296556 -11.66796875 34.7421875 C-12.10753906 35.15726562 -12.54710937 35.57234375 -13 36 C-13.99 35.505 -13.99 35.505 -15 35 C-14.319375 34.0925 -13.63875 33.185 -12.9375 32.25 C-10.70232788 29.30146735 -10.70232788 29.30146735 -11.37890625 26.796875 C-11.58386719 26.20390625 -11.78882813 25.6109375 -12 25 C-13.29315061 25.95632999 -14.58446853 26.91513851 -15.875 27.875 C-16.59429687 28.40867187 -17.31359375 28.94234375 -18.0546875 29.4921875 C-20.08252632 30.99873162 -20.08252632 30.99873162 -22 33 C-22.99 33 -23.98 33 -25 33 C-25 33.99 -25 34.98 -25 36 C-25.66 36 -26.32 36 -27 36 C-27 36.66 -27 37.32 -27 38 C-42.01704333 38.85975439 -42.01704333 38.85975439 -45.625 36.125 C-51.05961966 28.97418465 -53.81331338 22.96506244 -53.4375 13.83984375 C-52.79332745 9.65847372 -51.14705781 6.57842968 -49 3 C-48.67 2.01 -48.34 1.02 -48 0 C-57.83835566 5.97823623 -64.00284259 13.1841623 -68 24 C-68.66 24 -69.32 24 -70 24 C-69.64175662 16.10073339 -67.975247 11.28040053 -62.5625 5.3125 C-61.716875 4.549375 -60.87125 3.78625 -60 3 C-59.278125 2.34 -58.55625 1.68 -57.8125 1 C-40.91614666 -11.0151846 -17.01359109 -12.26103424 0 0 Z M-45 6 C-44.67673447 9.59679066 -44.67673447 9.59679066 -44 13 C-41.69 13.33 -39.38 13.66 -37 14 C-35.33153266 12.30504044 -35.33153266 12.30504044 -34 10 C-34.23445929 6.67649546 -34.23445929 6.67649546 -36 4 C-41.02509316 3.45584266 -41.02509316 3.45584266 -45 6 Z " fill="#000000" transform="translate(189,330)"/>
<path d="M0 0 C0.495 0.99 0.495 0.99 1 2 C-11.48146105 8.71874393 -23.542857 12.61162083 -37.83203125 9.04296875 C-41 8 -41 8 -43 7 C-42.67 6.34 -42.34 5.68 -42 5 C-40.86046875 5.04640625 -39.7209375 5.0928125 -38.546875 5.140625 C-25.39133046 5.50122386 -12.54992532 4.18330844 0 0 Z " fill="#000000" transform="translate(264,412)"/>
</svg>
